<?xml version="1.0" encoding="UTF-8" standalone="no"?>
<svg
   xmlns:dc="http://purl.org/dc/elements/1.1/"
   xmlns:cc="http://creativecommons.org/ns#"
   xmlns:rdf="http://www.w3.org/1999/02/22-rdf-syntax-ns#"
   xmlns:svg="http://www.w3.org/2000/svg"
   xmlns="http://www.w3.org/2000/svg"
   xmlns:sodipodi="http://sodipodi.sourceforge.net/DTD/sodipodi-0.dtd"
   xmlns:inkscape="http://www.inkscape.org/namespaces/inkscape"
   sodipodi:docname="SUSI.AI.Icon.svg"
   inkscape:version="1.0 (4035a4fb49, 2020-05-01)"
   id="svg2"
   preserveAspectRatio="xMidYMid meet"
   viewBox="0 0 311.00001 298.09998"
   height="298.09998pt"
   width="311pt"
   version="1.0">
  <metadata
     id="metadata22">
    <rdf:RDF>
      <cc:Work
         rdf:about="">
        <dc:format>image/svg+xml</dc:format>
        <dc:type
           rdf:resource="http://purl.org/dc/dcmitype/StillImage" />
        <dc:title></dc:title>
      </cc:Work>
    </rdf:RDF>
  </metadata>
  <defs
     id="defs20" />
  <sodipodi:namedview
     lock-margins="true"
     inkscape:document-rotation="0"
     inkscape:current-layer="svg2"
     inkscape:window-maximized="1"
     inkscape:window-y="0"
     inkscape:window-x="0"
     inkscape:cy="-3.8644287"
     inkscape:cx="630.706"
     inkscape:zoom="0.46613416"
     fit-margin-bottom="10"
     fit-margin-right="10"
     fit-margin-left="10"
     fit-margin-top="10"
     showgrid="false"
     id="namedview18"
     inkscape:window-height="1024"
     inkscape:window-width="1920"
     inkscape:pageshadow="2"
     inkscape:pageopacity="0"
     guidetolerance="10"
     gridtolerance="10"
     objecttolerance="10"
     borderopacity="1"
     bordercolor="#666666"
     pagecolor="#ffffff" />
  <path
     d="M 128.5,10.7 C 101.7,14 74.3,27.5 52.6,48.1 40.8,59.2 32.2,71 24.5,86.5 c -8.9,17.8 -12.8,32.1 -13.7,51 l -0.3,6 h 39 39 l 0.3,-4 c 0.7,-12.1 6.8,-24.1 17.2,-34.5 8.5,-8.4 16.2,-13.4 25.9,-16.7 l 6.6,-2.2 81.3,-0.1 H 301 V 48 10 l -84.7,0.1 c -46.7,0.1 -86.1,0.4 -87.8,0.6 z"
     id="path6"
     inkscape:connector-curvature="0"
     style="fill:#0080c0;stroke:none;stroke-width:1;stroke-miterlimit:4;stroke-dasharray:none;stroke-opacity:1" />
  <path
     d="m 223.5,155.2 c -0.2,0.7 -0.9,4.2 -1.5,7.7 -3.4,19.5 -19.4,38 -40,46.4 l -5.5,2.2 -83,0.5 -83,0.5 -0.3,37.8 -0.2,37.8 89.2,-0.3 89.3,-0.3 9.6,-2.7 c 57.7,-16.3 100.1,-67.4 102.1,-123.3 l 0.3,-7 -38.3,-0.3 c -30.1,-0.2 -38.3,0 -38.7,1 z"
     id="path14"
     inkscape:connector-curvature="0"
     style="fill:#0080c0;stroke:none;stroke-width:1;stroke-miterlimit:4;stroke-dasharray:none;stroke-opacity:1" />
</svg>
